<svg width="121" height="56" viewBox="0 0 121 56" fill="none" xmlns="http://www.w3.org/2000/svg">
<g clip-path="url(#clip0_7060_52576)">
<path d="M120.749 20.125C120.729 21.3542 120.625 22.5625 120.417 23.75L116.971 23.125C117.158 22.1458 117.241 21.1458 117.241 20.125H117.262C117.262 10.9583 109.829 3.5 100.695 3.5C91.56 3.5 84.1277 10.9583 84.1277 20.125C84.1277 21.125 84.2107 22.1458 84.3976 23.125L80.9513 23.75C80.7437 22.5625 80.6191 21.3542 80.6191 20.125C80.6399 9.02083 89.65 0 100.695 0C111.739 0 120.749 9.02083 120.749 20.125Z" fill="#CEB485"/>
<path d="M111.594 37.0417C114.75 35 117.262 32.1042 118.86 28.6875L115.705 27.1875C114.376 30 112.3 32.3958 109.705 34.0833C108.501 34.875 106.03 36.0417 102.459 37.4167V24.8542L106.985 29.3958L109.456 26.9167L104.93 22.375H111.324V18.8958H104.93L109.456 14.3542L106.985 11.875L102.438 16.4167V10H98.9507V16.4167L94.4249 11.875L91.9544 14.3542L96.4802 18.8958H90.0859V22.3958H96.4802L91.9544 26.9375L94.4249 29.4167L98.9507 24.875V37.4375C95.3799 36.0417 92.9094 34.8958 91.7052 34.1042C89.0894 32.4167 87.0133 30.0208 85.7054 27.2083L82.5498 28.7083C84.1484 32.125 86.6604 35 89.816 37.0625C90.8956 37.7708 93.0754 38.7292 95.8781 39.8333C92.7018 40.9167 89.0686 42.0417 84.9996 43.2292V46.7292C89.9821 45.2917 95.7536 43.4167 100.695 41.6458C105.656 43.4167 111.428 45.2917 116.39 46.7292V43.2292C112.321 42.0625 108.687 40.9167 105.511 39.8333C108.335 38.7083 110.514 37.7292 111.594 37.0417Z" fill="#128588"/>
<path d="M16.9256 16.2913H8.68366C7.43802 16.2913 6.46227 15.9788 5.77717 15.3747C5.09207 14.7497 4.73914 13.8955 4.73914 12.7913V10.5205H2.10254V13.0205C2.10254 14.9372 2.60079 16.4163 3.63883 17.4372C4.6561 18.458 6.17163 18.958 8.16465 18.958H19.6038V8.70801H16.9256V16.2913Z" fill="#128588"/>
<path d="M8.80821 7.39551C9.22342 7.39551 9.55559 7.27051 9.82548 7.04134C10.0954 6.81217 10.2407 6.49967 10.2199 6.08301C10.2199 5.68717 10.0954 5.37467 9.82548 5.12467C9.55559 4.87467 9.22342 4.77051 8.80821 4.77051C8.393 4.77051 8.06082 4.89551 7.79094 5.12467C7.52105 5.35384 7.39648 5.66634 7.39648 6.06217C7.39648 6.47884 7.52105 6.79134 7.79094 7.02051C8.08159 7.29134 8.41376 7.39551 8.80821 7.39551Z" fill="#128588"/>
<path d="M12.9188 7.39551C13.334 7.39551 13.6662 7.27051 13.9361 7.04134C14.206 6.81217 14.3305 6.49967 14.3305 6.08301C14.3305 5.68717 14.206 5.37467 13.9361 5.12467C13.687 4.87467 13.334 4.77051 12.9396 4.77051C12.5244 4.77051 12.1922 4.89551 11.9223 5.12467C11.6524 5.35384 11.5071 5.66634 11.4863 6.06217C11.4863 6.47884 11.6317 6.79134 11.9015 7.02051C12.1922 7.29134 12.5244 7.39551 12.9188 7.39551Z" fill="#128588"/>
<path d="M25.3341 4.39551H22.6768V18.958H25.3341V4.39551Z" fill="#128588"/>
<path d="M37.5206 4.39551H34.8633V18.958H37.5206V4.39551Z" fill="#128588"/>
<path d="M65.6303 20.75C65.215 20.75 64.8621 20.875 64.5922 21.125C64.3223 21.375 64.177 21.6875 64.1562 22.0625C64.1562 22.4792 64.3016 22.8125 64.5715 23.0417C64.8621 23.2708 65.1943 23.3958 65.6095 23.3958C66.0039 23.3958 66.3361 23.2708 66.606 23.0417C66.8759 22.8125 67.0212 22.4792 67.0212 22.0625C67.0212 21.6875 66.8759 21.375 66.606 21.125C66.3569 20.875 66.0247 20.75 65.6303 20.75Z" fill="#128588"/>
<path d="M72.3151 13.8333C72.3151 10.8542 70.4881 8.70833 65.9208 8.70833H59.1528V11.375H65.9C68.8896 11.375 69.8861 12.0625 69.8861 13.8125C69.8861 15.8542 68.5781 16.25 65.9 16.25C62.6198 16.25 52.717 16.25 52.717 16.25V14.2917C52.717 12.4167 52.2603 11 51.3676 10.0833C50.4749 9.14583 49.0839 8.6875 47.2155 8.6875H43.1256V11.3542H47.6307C48.4819 11.3542 49.1254 11.5833 49.5614 12.0417C49.9974 12.5 50.205 13.1667 50.205 14.0417V16.2708H40.5098V18.9583H50.205H65.9C69.9276 18.9583 72.3151 17.5 72.3151 13.8333Z" fill="#128588"/>
<path d="M29.1126 18.3125C29.1126 19.3542 28.905 20.125 28.4898 20.625C28.0746 21.125 27.431 21.375 26.5383 21.375C26.1854 21.375 25.8324 21.3542 25.4587 21.3542C25.0851 21.3333 24.6906 21.3125 24.2754 21.2917V23.5417C25.1058 23.7083 26.2477 23.7917 27.0988 23.7917C28.1161 23.7917 28.9881 23.5833 29.6732 23.1875C30.3583 22.7708 30.898 22.1667 31.2302 21.3542C31.5831 20.5417 31.7492 19.5417 31.7492 18.3333V8.75H29.0919V18.3125H29.1126Z" fill="#128588"/>
<path d="M39.5337 37.2705C39.3883 37.2705 39.2638 37.2288 39.16 37.1455C39.0562 37.0622 39.0146 36.9372 39.0146 36.7913C39.0146 36.6455 39.0562 36.5413 39.16 36.458C39.2638 36.3747 39.3883 36.333 39.5337 36.333C39.679 36.333 39.8036 36.3747 39.9074 36.458C40.0112 36.5413 40.0527 36.6663 40.0527 36.7913C40.0527 36.9372 39.9904 37.0622 39.9074 37.1455C39.8036 37.2288 39.679 37.2705 39.5337 37.2705Z" fill="#128588"/>
<path d="M39.741 28.6875C39.6372 28.6042 39.5957 28.4792 39.5957 28.3333C39.5957 28.1875 39.6372 28.0833 39.741 28C39.8448 27.9167 39.9694 27.875 40.1147 27.875C40.26 27.875 40.3846 27.9167 40.4884 28C40.5922 28.0833 40.6337 28.2083 40.6337 28.3333C40.6337 28.4792 40.5714 28.6042 40.4884 28.6875C40.3846 28.7708 40.26 28.8125 40.1355 28.8125C39.9694 28.8125 39.8448 28.7708 39.741 28.6875ZM41.2358 28.6875C41.132 28.6042 41.0904 28.4792 41.0904 28.3333C41.0904 28.1875 41.132 28.0833 41.2358 28C41.3396 27.9167 41.4641 27.875 41.6095 27.875C41.7548 27.875 41.8793 27.9167 41.9832 28C42.087 28.0833 42.1285 28.2083 42.1285 28.3333C42.1285 28.4792 42.0662 28.6042 41.9832 28.6875C41.8793 28.7708 41.7755 28.8125 41.6095 28.8125C41.4641 28.8125 41.3396 28.7708 41.2358 28.6875ZM60.6885 28.8542C60.5847 28.7708 60.5432 28.6458 60.5432 28.5C60.5432 28.3542 60.5847 28.25 60.6885 28.1667C60.7923 28.0833 60.9169 28.0417 61.0622 28.0417C61.2075 28.0417 61.3321 28.0833 61.4359 28.1667C61.5397 28.25 61.5812 28.375 61.5812 28.5C61.5812 28.6458 61.5397 28.7708 61.4359 28.8542C61.3321 28.9375 61.2075 28.9792 61.0622 28.9792C60.8961 28.9792 60.7715 28.9375 60.6885 28.8542ZM71.9615 28.1042V33.3542H70.9858V28.1042H71.9615ZM68.8267 32.375H67.2696C67.2696 32.2917 67.2904 32.2083 67.2904 32.125C67.2904 31.7292 67.2073 31.375 67.0205 31.0625C66.8336 30.75 66.5845 30.5208 66.2523 30.3542C65.9202 30.1875 65.5465 30.1042 65.1313 30.1042H64.9859C64.55 30.1042 64.1555 30.1875 63.8233 30.3542C63.4912 30.5208 63.242 30.7708 63.0552 31.0625C62.8684 31.375 62.7853 31.7292 62.7853 32.125C62.7853 32.2083 62.7853 32.2917 62.8061 32.375H61.5397V29.6458H60.5639V32.375H59.0484V31.7917C59.0484 31.3333 58.9654 30.9583 58.7993 30.625C58.6332 30.3125 58.3841 30.0625 58.0726 29.8958C57.7405 29.7292 57.3668 29.6458 56.9101 29.6458L53.5676 30.2292V29.5417H52.5918V32.375H42.5022V29.6458H40.0524C39.6164 29.6458 39.2427 29.7292 38.9313 29.875C38.5992 30.0208 38.3708 30.25 38.184 30.5208C37.9971 30.8125 37.9141 31.125 37.9141 31.5V31.5208C37.9141 31.9167 37.9971 32.25 38.184 32.5208C38.3708 32.7917 38.6407 33 38.9936 33.1458C39.3465 33.2917 39.7825 33.3542 40.3015 33.3542H63.2213C63.3874 33.5625 63.595 33.7083 63.8441 33.8333C64.1763 34 64.55 34.0833 65.0067 34.0833H65.152C65.5672 34.0833 65.9409 34 66.2731 33.8333C66.5222 33.7083 66.7298 33.5417 66.8959 33.3542H69.8232V28.1042H68.8474V32.375H68.8267ZM41.5264 32.375H39.8448C39.6372 32.375 39.4503 32.3333 39.305 32.2708C39.1597 32.2083 39.0351 32.1042 38.9521 31.9792C38.8691 31.8542 38.8275 31.6875 38.8275 31.5208V31.5C38.8275 31.3125 38.8691 31.1667 38.9521 31.0208C39.0351 30.8958 39.1597 30.7917 39.305 30.7083C39.4503 30.6458 39.6372 30.6042 39.8448 30.6042H41.5264V32.375ZM58.0934 32.375H53.5676V31.2083L56.9931 30.625C57.346 30.625 57.6159 30.7083 57.8028 30.8958C57.9896 31.0833 58.0934 31.3125 58.0934 31.625V32.375ZM66.2939 32.1042C66.2939 32.3125 66.2523 32.4792 66.1485 32.625C66.0447 32.7708 65.9202 32.8958 65.7333 32.9792C65.5465 33.0625 65.3389 33.1042 65.1105 33.1042H64.9652C64.7161 33.1042 64.5084 33.0625 64.3216 32.9792C64.1348 32.8958 63.9894 32.7917 63.8856 32.625C63.7818 32.4792 63.7403 32.2917 63.7403 32.1042C63.7403 31.8958 63.7818 31.7292 63.8856 31.5625C63.9894 31.4167 64.1348 31.2917 64.3216 31.2083C64.5084 31.125 64.7161 31.0833 64.9444 31.0833H65.0897C65.3181 31.0833 65.5257 31.125 65.7126 31.2083C65.8994 31.2917 66.024 31.4167 66.1278 31.5625C66.2523 31.7083 66.2939 31.8958 66.2939 32.1042Z" fill="#128588"/>
<path d="M28.3439 33.3542H29.7763C29.6518 33.875 29.0912 33.9583 28.3023 33.9583H26.6622V34.875H28.3439C30.1708 34.875 30.6898 34.1458 30.7521 33.3542H33.2434V28.1042H32.2676V32.375H31.458H31.0427H30.8559H30.7521V31.875C30.7521 30.625 30.0877 29.6458 28.6553 29.6458H28.2608C27.1813 29.6458 26.164 30.2708 26.164 31.5C26.1847 32.6458 27.0152 33.3542 28.3439 33.3542ZM27.0982 31.5C27.0982 30.9167 27.5342 30.625 28.2608 30.625H28.8836C29.5272 30.625 29.7971 31.0625 29.7971 31.9375V32.375H28.3231C27.5342 32.375 27.0982 31.9583 27.0982 31.5ZM14.2059 34C14.3512 34 14.4757 34.0417 14.5795 34.125C14.6833 34.2083 14.7249 34.3333 14.7249 34.4583C14.7249 34.6042 14.6833 34.7292 14.5795 34.7917C14.4757 34.875 14.3512 34.9167 14.2059 34.9167C14.0605 34.9167 13.936 34.875 13.8322 34.7917C13.7284 34.7083 13.6868 34.6042 13.6868 34.4375C13.6868 34.3125 13.7491 34.1875 13.8322 34.1042C13.936 34.0625 14.0605 34 14.2059 34ZM3.49336 33.1458C3.84629 33.2917 4.28227 33.3542 4.11618 33.3542H18.8147H19.4998H23.0499C24.5239 33.3542 25.3958 32.8125 25.3958 31.4792C25.3958 31.0417 25.0844 29.6458 23.299 29.6458L19.9566 30.2292V28.1042H18.9808V32.375H17.1123V29.6458H16.1574V32.375H13.9152V29.6458H12.9395V32.375H7.02267V29.6458H4.57292C4.13694 29.6458 3.76325 29.7292 3.45184 29.875C3.14043 30.0208 2.8913 30.25 2.70446 30.5208C2.51761 30.8125 2.43457 31.125 2.43457 31.5V31.5208C2.43457 31.9167 2.51761 32.25 2.70446 32.5208C2.8913 32.7917 3.14043 33 3.49336 33.1458ZM23.4028 30.625C24.2748 30.625 24.5239 31.1667 24.5239 31.4583C24.5239 32.2083 24.0464 32.375 23.0706 32.375C22.3233 32.375 20.9323 32.375 19.9773 32.375V31.2083L23.4028 30.625ZM3.34804 31.5C3.34804 31.3125 3.38956 31.1667 3.4726 31.0208C3.55565 30.8958 3.68021 30.7917 3.82553 30.7083C3.97086 30.6458 4.1577 30.6042 4.36531 30.6042H6.04692V32.3542H4.36531C4.1577 32.3542 3.97086 32.3125 3.82553 32.25C3.68021 32.1875 3.55565 32.0833 3.4726 31.9583C3.38956 31.8333 3.34804 31.6875 3.34804 31.5ZM4.26151 28.6875C4.1577 28.6042 4.11618 28.4792 4.11618 28.3333C4.11618 28.1875 4.1577 28.0833 4.26151 28C4.36531 27.9167 4.48987 27.875 4.6352 27.875C4.78052 27.875 4.90509 27.9167 5.00889 28C5.11269 28.0833 5.15421 28.2083 5.15421 28.3333C5.15421 28.4792 5.09193 28.6042 5.00889 28.6875C4.90509 28.7708 4.78052 28.8125 4.65596 28.8125C4.48987 28.8125 4.36531 28.7708 4.26151 28.6875ZM5.75627 28.6875C5.65247 28.6042 5.61095 28.4792 5.61095 28.3333C5.61095 28.1875 5.65247 28.0833 5.75627 28C5.86008 27.9167 5.98464 27.875 6.12997 27.875C6.27529 27.875 6.39985 27.9167 6.50366 28C6.60746 28.0833 6.64898 28.2083 6.64898 28.3333C6.64898 28.4792 6.5867 28.6042 6.50366 28.6875C6.39985 28.7708 6.27529 28.8125 6.12997 28.8125C5.98464 28.8125 5.86008 28.7708 5.75627 28.6875ZM16.2612 28.8542C16.1574 28.7708 16.1158 28.6458 16.1158 28.5C16.1158 28.3542 16.1574 28.25 16.2612 28.1667C16.365 28.0833 16.4895 28.0417 16.6348 28.0417C16.7802 28.0417 16.9047 28.0833 17.0085 28.1667C17.1123 28.25 17.1539 28.375 17.1539 28.5C17.1539 28.6458 17.1123 28.7708 17.0085 28.8542C16.9047 28.9375 16.7802 28.9792 16.6348 28.9792C16.4895 28.9792 16.365 28.9375 16.2612 28.8542ZM34.4682 28.1042H35.444V33.3542H34.4682V28.1042ZM12.7318 34C12.8772 34 13.0017 34.0417 13.0848 34.125C13.1886 34.2083 13.2301 34.3333 13.2301 34.4583C13.2301 34.6042 13.1886 34.7292 13.0848 34.7917C12.981 34.875 12.8564 34.9167 12.7318 34.9167C12.5865 34.9167 12.462 34.875 12.3582 34.7917C12.2544 34.7083 12.2128 34.6042 12.2128 34.4375C12.2128 34.3125 12.2544 34.1875 12.3582 34.1042C12.462 34.0625 12.5865 34 12.7318 34Z" fill="#128588"/>
<path d="M18.1711 36.542C18.3165 36.542 18.441 36.5837 18.5448 36.667C18.6486 36.7503 18.6902 36.8753 18.6902 37.0003C18.6902 37.1462 18.6279 37.2712 18.5448 37.3545C18.441 37.4378 18.3165 37.4795 18.1711 37.4795C18.0258 37.4795 17.9012 37.4378 17.8182 37.3545C17.7144 37.2712 17.6729 37.1462 17.6729 37.0003C17.6729 36.8545 17.7144 36.7503 17.8182 36.667C17.9012 36.5837 18.0258 36.542 18.1711 36.542ZM30.7521 36.6462C30.8559 36.7295 30.8974 36.8545 30.8974 36.9795C30.8974 37.1253 30.8559 37.2295 30.7521 37.3128C30.6483 37.3962 30.5237 37.4378 30.3992 37.4378C30.2538 37.4378 30.1293 37.3962 30.0255 37.3128C29.9217 37.2295 29.8801 37.1253 29.8801 36.9795C29.8801 36.8337 29.9217 36.7295 30.0255 36.6462C30.1293 36.5628 30.2538 36.5212 30.3992 36.5212C30.5237 36.5212 30.6483 36.5628 30.7521 36.6462ZM28.9044 36.5212C29.0497 36.5212 29.1743 36.5628 29.2573 36.6462C29.3611 36.7295 29.4026 36.8545 29.4026 36.9795C29.4026 37.1253 29.3404 37.2295 29.2573 37.3128C29.1535 37.3962 29.0497 37.4378 28.9044 37.4378C28.7591 37.4378 28.6345 37.3962 28.5307 37.3128C28.4269 37.2295 28.3854 37.1253 28.3854 36.9795C28.3854 36.8337 28.4269 36.7295 28.5307 36.6462C28.6345 36.5628 28.7591 36.5212 28.9044 36.5212ZM12.545 42.5628C12.6488 42.6462 12.6903 42.7712 12.6903 42.8962C12.6903 43.042 12.6488 43.167 12.545 43.2295C12.4412 43.3128 12.3166 43.3545 12.1921 43.3545C12.0467 43.3545 11.9222 43.3128 11.8184 43.2295C11.7146 43.1462 11.6731 43.042 11.6731 42.8753C11.6731 42.7503 11.7146 42.6253 11.8184 42.542C11.9222 42.4587 12.0467 42.417 12.1921 42.417C12.3374 42.4378 12.4412 42.4795 12.545 42.5628ZM14.019 42.5628C14.1228 42.6462 14.1643 42.7712 14.1643 42.8962C14.1643 43.042 14.1228 43.167 14.019 43.2295C13.9152 43.3128 13.7906 43.3545 13.6453 43.3545C13.5 43.3545 13.3754 43.3128 13.2716 43.2295C13.1678 43.1462 13.1263 43.042 13.1263 42.8753C13.1263 42.7503 13.1886 42.6253 13.2716 42.542C13.3754 42.4587 13.5 42.417 13.6246 42.417C13.7906 42.4378 13.9152 42.4795 14.019 42.5628ZM8.30983 36.4795C8.45516 36.4795 8.57972 36.5212 8.68352 36.6045C8.78733 36.6878 8.82885 36.8128 8.82885 36.9378C8.82885 37.0837 8.78733 37.2087 8.68352 37.292C8.57972 37.3753 8.47592 37.417 8.30983 37.417C8.16451 37.417 8.03994 37.3753 7.93614 37.292C7.83234 37.2087 7.79082 37.0837 7.79082 36.9378C7.79082 36.792 7.83234 36.6878 7.93614 36.6045C8.03994 36.5212 8.16451 36.4795 8.30983 36.4795ZM19.3753 40.8337C18.6279 40.8337 17.2161 40.8337 16.2612 40.8337L16.2819 40.8128V39.6462L19.7074 39.0628C20.5794 39.0628 20.8285 39.6045 20.8285 39.8962C20.8285 40.667 20.351 40.8337 19.3753 40.8337ZM34.489 40.8337H33.0565V36.5628H32.1015V40.8337H30.1085V38.1045H29.1535V40.8337H28.593H27.8664H27.3889H27.1813V40.3337C27.1813 39.0837 26.5169 38.1045 25.0844 38.1045H24.69C23.6104 38.1045 22.5932 38.7295 22.5932 39.9587C22.5932 41.0837 23.4028 41.792 24.7523 41.792H26.1847C26.0602 42.3128 25.4996 42.3962 24.7107 42.3962H23.0706V43.3128H24.7523C26.5792 43.3128 27.0982 42.5837 27.1605 41.792H29.5687L35.4232 41.7712V36.542H34.4682V40.8337H34.489ZM23.5066 39.9795C23.5066 39.3962 23.9426 39.0837 24.6692 39.0837H25.292C25.9356 39.0837 26.2055 39.5212 26.2055 40.3962V40.8337H24.7315C23.9218 40.8337 23.5066 40.417 23.5066 39.9795ZM10.4689 40.8337V40.3337C10.4689 39.0837 9.8046 38.1045 8.37211 38.1045H8.24755C7.81158 38.1045 7.43789 38.1878 7.12648 38.3337C6.81507 38.4795 6.56594 38.7087 6.37909 38.9795C6.21301 39.2503 6.1092 39.5837 6.1092 39.9587C6.1092 40.292 6.19225 40.5837 6.31681 40.8337H4.80128C4.34455 40.8337 3.99162 40.7295 3.74249 40.5003C3.49336 40.2712 3.3688 39.9587 3.3688 39.5628V38.7503H2.43457V39.6462C2.43457 40.3337 2.62142 40.8753 2.99511 41.2295C3.3688 41.6045 3.90858 41.7712 4.6352 41.7712H14.891H19.396C20.87 41.7712 21.742 41.2295 21.742 39.8962C21.742 39.4587 21.4306 38.0628 19.6451 38.0628L16.3027 38.6462V36.5212H15.3269V40.8337C15.3062 40.8337 15.2854 40.8337 15.2854 40.8337H13.3547V38.1045H12.3997V40.8337H10.4689ZM9.47243 40.8337H8.0607C7.8531 40.8337 7.66625 40.792 7.52093 40.7295C7.35484 40.667 7.23028 40.5628 7.168 40.4378C7.08495 40.3128 7.04343 40.1462 7.04343 39.9795C7.04343 39.792 7.08495 39.6253 7.168 39.5003C7.25104 39.3753 7.3756 39.2712 7.52093 39.1878C7.66625 39.1045 7.8531 39.0837 8.08147 39.0837H8.24755H8.60048C9.24406 39.0837 9.51395 39.542 9.51395 40.417V40.8545H9.47243V40.8337Z" fill="#128588"/>
<path d="M55.6024 39.9372C55.6024 41.2705 54.7304 41.8122 53.2564 41.8122H43.2706V40.833H46.966V40.0413C46.966 39.7288 46.8829 39.4997 46.7376 39.333C46.5923 39.1663 46.3639 39.083 46.0525 39.083H44.4332V38.1038H45.9072C46.5715 38.1038 47.0905 38.2705 47.4019 38.6038C47.7341 38.9372 47.8794 39.458 47.8794 40.1247V40.8122H50.6198C50.6198 40.8122 52.0731 40.8122 53.2564 40.8122C54.2322 40.8122 54.7097 40.6663 54.7097 39.9163C54.7097 39.2705 54.3567 39.0205 53.2564 39.0205H50.7859V38.0413H53.2564C54.938 38.0413 55.6024 38.833 55.6024 39.9372ZM41.0284 37.2705C40.8831 37.2705 40.7585 37.2288 40.6547 37.1455C40.5509 37.0622 40.5094 36.9372 40.5094 36.7913C40.5094 36.6455 40.5509 36.5413 40.6547 36.458C40.7585 36.3747 40.8831 36.333 41.0284 36.333C41.1737 36.333 41.2983 36.3747 41.4021 36.458C41.5059 36.5413 41.5474 36.6663 41.5474 36.7913C41.5474 36.9372 41.4851 37.0622 41.4021 37.1455C41.2983 37.2288 41.1737 37.2705 41.0284 37.2705ZM68.8269 40.833H67.2699C67.2699 40.7497 67.2906 40.6663 67.2906 40.583C67.2906 40.1872 67.2076 39.833 67.0207 39.5205C66.8339 39.208 66.5848 38.9788 66.2526 38.8122C65.9204 38.6455 65.5467 38.5622 65.1315 38.5622H64.9862C64.5502 38.5622 64.1558 38.6455 63.8236 38.8122C63.4914 38.9788 63.2423 39.2288 63.0555 39.5205C62.8686 39.833 62.7856 40.1872 62.7856 40.583C62.7856 40.6663 62.7856 40.7497 62.8063 40.833H62.3496H61.9551H61.2493V40.333C61.2493 39.083 60.5849 38.1038 59.1525 38.1038H58.758C57.6784 38.1038 56.6612 38.7288 56.6612 39.958C56.6612 41.083 57.4708 41.7913 58.8203 41.7913H60.2528C60.1282 42.3122 59.5677 42.3955 58.7788 42.3955H57.1387V43.3122H58.8203C60.6472 43.3122 61.1662 42.583 61.2285 41.7913H63.2008C63.3669 41.9788 63.5745 42.1455 63.8236 42.2705C64.1558 42.4372 64.5502 42.5205 64.9862 42.5205H65.1315C65.5467 42.5205 65.9204 42.4372 66.2526 42.2705C66.5017 42.1455 66.7093 41.9997 66.8754 41.7913H69.8027V36.5413H68.8269V40.833ZM57.5746 39.9788C57.5746 39.3955 58.0106 39.083 58.7372 39.083H59.3601C60.0036 39.083 60.2735 39.5205 60.2735 40.3955V40.833H58.7995C58.0106 40.833 57.5746 40.4163 57.5746 39.9788ZM66.2941 40.5413C66.2941 40.7497 66.2526 40.9163 66.1488 41.0622C66.045 41.208 65.9204 41.333 65.7336 41.4163C65.5467 41.4997 65.3391 41.5413 65.1108 41.5413H64.9654C64.7163 41.5413 64.5087 41.4997 64.3219 41.4163C64.135 41.333 63.9897 41.208 63.8859 41.0622C63.7821 40.9163 63.7406 40.7288 63.7406 40.5413C63.7406 40.333 63.7821 40.1663 63.8859 39.9997C63.9897 39.8538 64.135 39.7288 64.3219 39.6455C64.5087 39.5622 64.7163 39.5205 64.9654 39.5205H65.1108C65.3391 39.5205 65.5467 39.5622 65.7336 39.6455C65.9204 39.7288 66.045 39.8538 66.1488 39.9997C66.2526 40.1663 66.2941 40.333 66.2941 40.5413ZM70.986 36.5622H71.9618V41.8122H70.986V36.5622ZM40.2603 41.8122C40.7793 41.8122 41.2153 41.7288 41.5682 41.6038C41.9211 41.458 42.191 41.2497 42.3779 40.9788C42.5647 40.708 42.6477 40.3747 42.6477 39.9788V39.958C42.6477 39.583 42.5647 39.2705 42.3779 38.9788C42.191 38.6872 41.9626 38.4788 41.6305 38.333C41.3191 38.1872 40.9246 38.1038 40.5094 38.1038H40.0319C39.5959 38.1038 39.2222 38.1872 38.9108 38.333C38.5994 38.4788 38.3503 38.708 38.1634 38.9788C37.9766 39.2705 37.8936 39.583 37.8936 39.958V39.9788C37.8936 40.3747 37.9766 40.708 38.1634 40.9788C38.3503 41.2497 38.6202 41.458 38.9731 41.6038C39.326 41.7288 39.762 41.8122 40.2603 41.8122ZM40.6962 39.083C40.9038 39.083 41.0907 39.1247 41.236 39.1872C41.3813 39.2705 41.5059 39.3538 41.5889 39.4997C41.672 39.6247 41.7135 39.7913 41.7135 39.958V39.9788C41.7135 40.1455 41.672 40.3122 41.5889 40.4372C41.5059 40.5622 41.4021 40.6663 41.236 40.7288C41.0907 40.7913 40.9038 40.833 40.6962 40.833H39.8243C39.6167 40.833 39.4298 40.7913 39.2845 40.7288C39.1392 40.6663 39.0146 40.5622 38.9316 40.4372C38.8485 40.3122 38.807 40.1455 38.807 39.9788V39.958C38.807 39.7705 38.8485 39.6247 38.9316 39.4997C39.0146 39.3747 39.1392 39.2705 39.2845 39.1872C39.4298 39.1247 39.6167 39.083 39.8243 39.083H40.6962Z" fill="#128588"/>
</g>
<defs>
<clipPath id="clip0_7060_52576">
<rect width="119" height="56" fill="white" transform="translate(1.75)"/>
</clipPath>
</defs>
</svg>